<?xml version="1.0" encoding="utf-8"?>
<!-- Generator: Adobe Illustrator 23.1.1, SVG Export Plug-In . SVG Version: 6.00 Build 0)  -->
<svg version="1.1" id="Layer_1" xmlns="http://www.w3.org/2000/svg" xmlns:xlink="http://www.w3.org/1999/xlink" x="0px" y="0px"
	 width="273px" height="158px" viewBox="0 0 273 158" style="enable-background:new 0 0 273 158;" xml:space="preserve">
<g>
	<path style="fill:#D2D8EB;" d="M135.291,156.891l-0.029-1c0.948-0.027,1.912-0.155,2.865-0.381l0.23,0.973
		C137.337,156.724,136.306,156.86,135.291,156.891z M132.199,156.648c-1-0.188-1.999-0.484-2.969-0.881l0.379-0.926
		c0.907,0.371,1.84,0.648,2.774,0.824L132.199,156.648z M141.278,155.5l-0.4-0.916c0.864-0.378,1.731-0.84,2.576-1.376l0.535,0.846
		C143.102,154.615,142.189,155.103,141.278,155.5z M126.498,154.362c-0.883-0.531-1.734-1.106-2.528-1.708l0.604-0.797
		c0.766,0.58,1.587,1.135,2.44,1.647L126.498,154.362z M146.461,152.244l-0.641-0.768c0.736-0.614,1.458-1.292,2.145-2.015
		l0.725,0.689C147.977,150.901,147.227,151.605,146.461,152.244z M186.985,150.803c-0.384,0-0.766-0.004-1.147-0.012l0.021-1
		c0.983,0.021,1.978,0.015,2.973-0.019l0.033,1C188.236,150.793,187.61,150.803,186.985,150.803z M121.646,150.67
		c-0.737-0.708-1.433-1.467-2.068-2.255l0.778-0.627c0.609,0.755,1.276,1.481,1.983,2.161L121.646,150.67z M182.814,150.65
		c-1.021-0.077-2.033-0.181-3.011-0.31l0.131-0.992c0.959,0.127,1.953,0.229,2.954,0.304L182.814,150.65z M191.885,150.6
		l-0.082-0.996c0.975-0.08,1.971-0.187,2.959-0.316l0.131,0.992C193.888,150.411,192.875,150.519,191.885,150.6z M74.429,150.334
		c-0.314,0-0.633-0.003-0.958-0.009l0.019-1c1.04,0.019,2.031,0.006,2.97-0.033l0.042,1
		C75.837,150.319,75.146,150.334,74.429,150.334z M70.445,150.191c-0.997-0.068-2.011-0.163-3.015-0.281l0.116-0.992
		c0.988,0.115,1.986,0.208,2.967,0.275L70.445,150.191z M79.53,150.056l-0.117-0.992c1.078-0.128,2.051-0.298,2.893-0.505
		l0.239,0.971C81.663,149.746,80.648,149.924,79.53,150.056z M176.814,149.857c-0.999-0.193-1.994-0.418-2.956-0.667l0.252-0.969
		c0.941,0.245,1.915,0.465,2.894,0.653L176.814,149.857z M197.88,149.817l-0.176-0.984c0.983-0.176,1.965-0.376,2.918-0.592
		l0.221,0.975C199.876,149.437,198.879,149.639,197.88,149.817z M64.434,149.491c-0.985-0.16-1.986-0.348-2.974-0.556l0.206-0.979
		c0.974,0.205,1.959,0.389,2.929,0.548L64.434,149.491z M85.461,148.642l-0.339-0.941c0.897-0.323,1.818-0.7,2.735-1.121
		l0.417,0.908C87.332,147.92,86.386,148.309,85.461,148.642z M203.775,148.483l-0.264-0.965c0.954-0.262,1.906-0.546,2.854-0.851
		l0.307,0.951C205.712,147.929,204.738,148.22,203.775,148.483z M170.95,148.333c-0.957-0.316-1.914-0.672-2.845-1.055l0.381-0.924
		c0.908,0.373,1.843,0.72,2.778,1.029L170.95,148.333z M58.515,148.248c-0.966-0.249-1.946-0.524-2.912-0.82l0.293-0.957
		c0.951,0.292,1.916,0.563,2.868,0.809L58.515,148.248z M150.673,147.829l-0.793-0.609c0.593-0.773,1.156-1.591,1.672-2.429
		l0.852,0.523C151.869,146.182,151.287,147.027,150.673,147.829z M209.521,146.633l-0.348-0.938c0.927-0.344,1.849-0.71,2.764-1.096
		l0.389,0.922C211.397,145.913,210.462,146.283,209.521,146.633z M52.732,146.472c-0.943-0.338-1.893-0.704-2.822-1.09l0.383-0.924
		c0.915,0.379,1.849,0.74,2.776,1.072L52.732,146.472z M90.984,146.123l-0.479-0.877c0.84-0.46,1.702-0.966,2.561-1.503l0.53,0.848
		C92.72,145.139,91.841,145.654,90.984,146.123z M165.341,146.078c-0.951-0.427-1.861-0.847-2.733-1.26l0.43-0.904
		c0.864,0.411,1.769,0.827,2.714,1.252L165.341,146.078z M117.812,145.916c-0.528-0.86-1.01-1.771-1.434-2.704l0.911-0.412
		c0.406,0.896,0.869,1.768,1.375,2.593L117.812,145.916z M215.077,144.29l-0.428-0.904c0.894-0.423,1.78-0.867,2.659-1.332
		l0.467,0.885C216.885,143.409,215.984,143.859,215.077,144.29z M47.145,144.152c-0.903-0.429-1.811-0.889-2.699-1.367l0.475-0.881
		c0.873,0.472,1.766,0.924,2.653,1.344L47.145,144.152z M159.902,143.49c-0.94-0.478-1.829-0.947-2.666-1.406l0.48-0.877
		c0.829,0.455,1.708,0.919,2.639,1.393L159.902,143.49z M96.117,142.921l-0.571-0.82c0.793-0.553,1.595-1.138,2.406-1.755
		l0.606,0.795C97.736,141.768,96.922,142.36,96.117,142.921z M153.86,142.63l-0.902-0.43c0.332-0.698,0.628-1.403,0.884-2.102
		c-0.621-0.388-1.215-0.774-1.771-1.154l0.562-0.826c0.77,0.524,1.611,1.063,2.502,1.603l-0.236,0.391
		C154.607,140.947,154.259,141.793,153.86,142.63z M220.413,141.47l-0.506-0.863c0.854-0.501,1.698-1.021,2.532-1.562l0.543,0.84
		C222.137,140.433,221.28,140.961,220.413,141.47z M41.821,141.276c-0.867-0.531-1.721-1.087-2.537-1.652l0.569-0.822
		c0.801,0.555,1.639,1.1,2.49,1.621L41.821,141.276z M115.283,140.361c-0.302-0.948-0.562-1.941-0.772-2.951l0.979-0.203
		c0.203,0.976,0.454,1.935,0.747,2.85L115.283,140.361z M100.925,139.267l-0.634-0.773c0.752-0.617,1.51-1.26,2.276-1.93
		l0.658,0.754C102.451,137.993,101.685,138.644,100.925,139.267z M225.479,138.188l-0.582-0.814
		c0.811-0.578,1.611-1.178,2.381-1.782l0.617,0.785C227.115,136.991,226.302,137.601,225.479,138.188z M36.845,137.831
		c-0.791-0.616-1.575-1.267-2.332-1.933l0.661-0.75c0.741,0.652,1.51,1.29,2.285,1.894L36.845,137.831z M149.628,137.141
		c-0.862-0.695-1.625-1.387-2.266-2.057l0.723-0.691c0.611,0.639,1.341,1.301,2.17,1.969L149.628,137.141z M155.767,136.812
		l-0.986-0.168c0.142-0.829,0.214-1.634,0.214-2.391c0-0.166-0.004-0.33-0.011-0.493l1-0.041c0.007,0.177,0.011,0.354,0.011,0.534
		C155.994,135.067,155.917,135.928,155.767,136.812z M105.466,135.303l-0.679-0.734c0.717-0.662,1.439-1.347,2.168-2.055
		l0.696,0.717C106.917,133.944,106.188,134.635,105.466,135.303z M230.228,134.459l-0.654-0.756
		c0.753-0.651,1.494-1.322,2.203-1.996l0.689,0.725C231.745,133.116,230.992,133.799,230.228,134.459z M114.031,134.404
		c-0.111-0.976-0.186-1.995-0.22-3.03l0.999-0.033c0.034,1.009,0.106,2.001,0.214,2.95L114.031,134.404z M32.302,133.831
		c-0.714-0.71-1.415-1.45-2.082-2.2l0.747-0.664c0.653,0.734,1.339,1.459,2.04,2.155L32.302,133.831z M145.475,132.603
		c-0.477-0.868-0.719-1.693-0.719-2.453c0.001-0.269,0.032-0.528,0.091-0.773l0.973,0.234c-0.041,0.17-0.062,0.353-0.063,0.541
		c0,0.588,0.2,1.251,0.596,1.969L145.475,132.603z M109.789,131.11l-0.712-0.703c0.688-0.696,1.38-1.413,2.078-2.148l0.726,0.688
		C111.178,129.688,110.481,130.408,109.789,131.11z M154.433,131.014c-0.366-0.85-0.93-1.566-1.675-2.129l0.602-0.799
		c0.887,0.669,1.557,1.521,1.991,2.533L154.433,131.014z M234.604,130.302l-0.723-0.691c0.683-0.715,1.355-1.454,1.998-2.196
		l0.756,0.654C235.981,128.823,235.298,129.574,234.604,130.302z M28.278,129.31c-0.62-0.791-1.224-1.611-1.795-2.438l0.822-0.568
		c0.56,0.81,1.152,1.613,1.76,2.389L28.278,129.31z M114.814,128.375l-0.999-0.035c0.018-0.532,0.046-1.076,0.083-1.626
		l-0.705-0.646l1.955-2.157l-0.142,1.5C114.912,126.417,114.847,127.414,114.814,128.375z M147.531,127.942l-0.328-0.945
		c0.95-0.329,2.086-0.398,3.219-0.188l-0.182,0.982C149.285,127.615,148.31,127.671,147.531,127.942z M238.551,125.736l-0.787-0.615
		c0.609-0.781,1.205-1.585,1.77-2.39l0.818,0.574C239.777,124.124,239.172,124.942,238.551,125.736z M24.839,124.329
		c-0.518-0.858-1.018-1.744-1.487-2.636l0.885-0.465c0.459,0.873,0.95,1.742,1.458,2.583L24.839,124.329z M242.022,120.787
		l-0.848-0.531c0.529-0.845,1.038-1.706,1.511-2.559l0.875,0.484C243.078,119.051,242.562,119.927,242.022,120.787z M22.022,118.978
		c-0.413-0.907-0.808-1.845-1.174-2.786l0.932-0.363c0.36,0.925,0.748,1.845,1.153,2.735L22.022,118.978z M244.957,115.498
		l-0.898-0.438c0.431-0.886,0.845-1.796,1.23-2.706l0.92,0.391C245.817,113.671,245.396,114.597,244.957,115.498z M19.828,113.346
		c-0.31-0.937-0.603-1.91-0.872-2.893l0.965-0.264c0.264,0.966,0.553,1.922,0.856,2.844L19.828,113.346z M247.312,109.93
		l-0.941-0.34c0.335-0.929,0.649-1.878,0.935-2.82l0.957,0.289C247.973,108.018,247.653,108.983,247.312,109.93z M18.229,107.522
		c-0.216-0.969-0.415-1.965-0.59-2.96l0.985-0.174c0.172,0.981,0.368,1.963,0.58,2.917L18.229,107.522z M249.058,104.142
		l-0.971-0.238c0.233-0.955,0.445-1.933,0.629-2.903l0.982,0.186C249.511,102.174,249.296,103.168,249.058,104.142z M17.181,101.579
		c-0.13-0.979-0.242-1.979-0.336-2.997l0.996-0.092c0.092,1.005,0.203,1.99,0.331,2.958L17.181,101.579z M250.185,98.202
		l-0.99-0.135c0.132-0.968,0.242-1.961,0.328-2.954l0.996,0.086C250.432,96.209,250.319,97.219,250.185,98.202z M16.626,95.574
		c-0.053-0.987-0.09-1.991-0.11-3.013l1-0.02c0.02,1.01,0.056,2.002,0.108,2.978L16.626,95.574z M250.701,92.182l-1-0.035
		c0.027-0.753,0.041-1.511,0.042-2.275l-0.004-0.701l1-0.012l0.004,0.714C250.742,90.649,250.729,91.419,250.701,92.182z
		 M17.508,89.559l-1-0.014c0.013-1.023,0.039-2.026,0.076-3.01l0.999,0.037C17.547,87.548,17.521,88.543,17.508,89.559z
		 M249.638,86.194c-0.057-0.979-0.135-1.97-0.235-2.969l0.994-0.1c0.103,1.013,0.183,2.017,0.239,3.012L249.638,86.194z
		 M17.735,83.593l-0.998-0.064c0.066-1.025,0.146-2.026,0.238-3.004l0.995,0.094C17.879,81.586,17.8,82.577,17.735,83.593z
		 M249.038,80.271c-0.141-0.971-0.303-1.951-0.486-2.939l0.982-0.184c0.188,1.002,0.352,1.995,0.494,2.98L249.038,80.271z
		 M18.297,77.655l-0.992-0.126c0.13-1.022,0.275-2.016,0.435-2.984l0.986,0.162C18.569,75.663,18.426,76.646,18.297,77.655z
		 M247.951,74.413c-0.217-0.958-0.453-1.923-0.712-2.895l0.967-0.257c0.261,0.984,0.501,1.961,0.72,2.931L247.951,74.413z
		 M19.267,71.78l-0.979-0.202c0.206-1,0.433-1.99,0.673-2.942l0.97,0.245C19.693,69.816,19.472,70.783,19.267,71.78z M246.423,68.65
		c-0.285-0.94-0.591-1.887-0.914-2.84l0.947-0.321c0.327,0.964,0.635,1.921,0.924,2.871L246.423,68.65z M20.729,66.019l-0.956-0.293
		c0.298-0.974,0.624-1.938,0.967-2.866l0.938,0.347C21.342,64.116,21.022,65.062,20.729,66.019z M244.503,63
		c-0.346-0.919-0.711-1.846-1.093-2.778l0.926-0.379c0.386,0.941,0.754,1.876,1.103,2.805L244.503,63z M22.792,60.46l-0.914-0.405
		c0.414-0.935,0.859-1.852,1.324-2.726l0.883,0.469C23.631,58.651,23.196,59.547,22.792,60.46z M242.236,57.479
		c-0.399-0.899-0.816-1.803-1.25-2.712l0.902-0.431c0.438,0.917,0.858,1.83,1.262,2.736L242.236,57.479z M59.37,56.021
		c-1.094-0.103-2.1-0.527-2.989-1.262l0.637-0.771c0.732,0.605,1.555,0.954,2.445,1.037L59.37,56.021z M62.554,55.426l-0.458-0.889
		c0.766-0.395,1.463-1.029,2.016-1.834l0.824,0.566C64.29,54.211,63.466,54.957,62.554,55.426z M25.571,55.244l-0.844-0.537
		c0.551-0.865,1.137-1.703,1.742-2.49l0.793,0.609C26.675,53.59,26.106,54.403,25.571,55.244z M54.408,52.275
		c-0.469-0.86-0.857-1.832-1.153-2.887l0.963-0.27c0.271,0.969,0.641,1.895,1.068,2.678L54.408,52.275z M239.664,52.089
		c-0.447-0.876-0.91-1.758-1.39-2.645l0.879-0.476c0.483,0.893,0.95,1.782,1.401,2.666L239.664,52.089z M29.165,50.575l-0.732-0.682
		c0.694-0.746,1.429-1.459,2.186-2.122l0.658,0.753C30.546,49.165,29.835,49.854,29.165,50.575z M66.188,50.353L65.21,50.14
		c0.108-0.498,0.164-1.002,0.164-1.499c0-0.435-0.042-0.863-0.126-1.273l0.979-0.2c0.098,0.476,0.147,0.972,0.147,1.473
		C66.374,49.209,66.312,49.785,66.188,50.353z M236.822,46.833c-0.273-0.478-0.552-0.957-0.835-1.438
		c-0.226-0.384-0.452-0.763-0.679-1.139l0.855-0.517c0.229,0.378,0.457,0.762,0.685,1.148c0.285,0.484,0.565,0.967,0.841,1.448
		L236.822,46.833z M33.59,46.707l-0.575-0.818c0.829-0.583,1.7-1.126,2.587-1.616l0.483,0.876
		C35.229,45.621,34.39,46.145,33.59,46.707z M52.683,46.371c-0.132-1.011-0.22-2.031-0.26-3.032l0.999-0.041
		c0.04,0.972,0.125,1.962,0.252,2.943L52.683,46.371z M64.066,44.923c-0.575-0.67-1.327-1.204-2.237-1.585l0.388-0.922
		c1.054,0.442,1.931,1.067,2.608,1.856L64.066,44.923z M38.735,43.866l-0.387-0.922c0.928-0.39,1.893-0.737,2.869-1.033l0.29,0.957
		C40.564,43.155,39.631,43.49,38.735,43.866z M59.043,42.471c-0.923-0.223-1.899-0.411-2.9-0.559l0.146-0.989
		c1.032,0.152,2.038,0.346,2.99,0.576L59.043,42.471z M44.369,42.153l-0.195-0.98c0.98-0.195,1.994-0.348,3.012-0.455l0.104,0.994
		C46.302,41.816,45.319,41.964,44.369,42.153z M233.733,41.721c-0.546-0.852-1.094-1.682-1.644-2.491l0.826-0.562
		c0.556,0.817,1.109,1.655,1.659,2.514L233.733,41.721z M53.199,41.602c-0.986-0.064-1.966-0.088-2.958-0.069l-0.018-1
		c1.02-0.019,2.027,0.006,3.04,0.071L53.199,41.602z M53.439,40.347l-0.999-0.053c0.054-1.013,0.156-2.031,0.304-3.027l0.989,0.146
		C53.589,38.378,53.491,39.366,53.439,40.347z M230.375,36.789c-0.593-0.819-1.188-1.615-1.787-2.388l0.791-0.612
		c0.604,0.782,1.206,1.585,1.807,2.413L230.375,36.789z M54.304,34.521l-0.971-0.24c0.241-0.976,0.534-1.956,0.87-2.914l0.943,0.331
		C54.821,32.626,54.538,33.576,54.304,34.521z M226.725,32.073c-0.645-0.778-1.291-1.532-1.94-2.262l0.746-0.665
		c0.657,0.738,1.312,1.501,1.964,2.289L226.725,32.073z M56.25,28.961l-0.909-0.415c0.416-0.911,0.882-1.822,1.387-2.709
		l0.869,0.494C57.107,27.192,56.654,28.078,56.25,28.961z M222.764,27.621c-0.698-0.729-1.398-1.433-2.101-2.11l0.693-0.72
		c0.712,0.686,1.422,1.399,2.13,2.138L222.764,27.621z M59.167,23.828l-0.824-0.566c0.566-0.824,1.178-1.642,1.82-2.432l0.776,0.63
		C60.314,22.229,59.718,23.026,59.167,23.828z M218.479,23.486c-0.755-0.671-1.51-1.314-2.266-1.931l0.633-0.774
		c0.766,0.625,1.532,1.278,2.297,1.958L218.479,23.486z M213.866,19.726c-0.787-0.586-1.604-1.166-2.426-1.722l0.561-0.828
		c0.835,0.564,1.663,1.153,2.463,1.749L213.866,19.726z M62.892,19.234l-0.727-0.688c0.688-0.726,1.416-1.442,2.165-2.127
		l0.675,0.737C64.273,17.826,63.562,18.525,62.892,19.234z M138.474,18.312l-0.473-0.881c0.896-0.481,1.783-0.948,2.662-1.4
		l0.457,0.889C140.247,17.37,139.365,17.834,138.474,18.312z M135.588,16.62c-0.788-0.641-1.569-1.258-2.342-1.851l0.608-0.794
		c0.781,0.599,1.569,1.222,2.365,1.869L135.588,16.62z M208.938,16.396c-0.85-0.518-1.716-1.019-2.575-1.488l0.48-0.878
		c0.872,0.477,1.753,0.986,2.616,1.512L208.938,16.396z M143.791,15.576l-0.441-0.897c0.915-0.45,1.821-0.883,2.716-1.3l0.422,0.906
		C145.599,14.699,144.7,15.129,143.791,15.576z M67.259,15.231l-0.624-0.781c0.775-0.619,1.593-1.229,2.429-1.813l0.572,0.819
		C68.818,14.028,68.018,14.625,67.259,15.231z M203.719,13.544c-0.892-0.434-1.802-0.85-2.706-1.237l0.395-0.919
		c0.918,0.394,1.844,0.817,2.749,1.257L203.719,13.544z M149.21,13.054l-0.402-0.916c0.937-0.411,1.862-0.802,2.775-1.174
		l0.377,0.926C151.055,12.258,150.138,12.646,149.21,13.054z M130.85,12.991c-0.827-0.592-1.645-1.156-2.455-1.691l0.552-0.834
		c0.82,0.542,1.648,1.113,2.485,1.712L130.85,12.991z M72.122,11.832L71.6,10.979c0.853-0.521,1.737-1.026,2.629-1.502l0.471,0.882
		C73.825,10.825,72.958,11.321,72.122,11.832z M198.252,11.199c-0.945-0.354-1.882-0.681-2.81-0.982l0.309-0.951
		c0.965,0.313,1.925,0.649,2.853,0.997L198.252,11.199z M154.74,10.8l-0.352-0.937c0.962-0.36,1.908-0.698,2.841-1.014l0.32,0.947
		C156.627,10.109,155.69,10.444,154.74,10.8z M125.876,9.71c-0.871-0.523-1.741-1.018-2.586-1.47l0.472-0.882
		c0.86,0.46,1.744,0.963,2.629,1.494L125.876,9.71z M192.59,9.358c-0.976-0.271-1.938-0.517-2.886-0.741l0.229-0.974
		c0.962,0.227,1.938,0.476,2.925,0.75L192.59,9.358z M77.36,9.032l-0.421-0.907c0.91-0.422,1.845-0.826,2.778-1.2l0.372,0.929
		C79.172,8.221,78.254,8.618,77.36,9.032z M160.391,8.893l-0.285-0.958c0.987-0.294,1.958-0.562,2.912-0.803l0.244,0.97
		C162.321,8.339,161.364,8.603,160.391,8.893z M186.789,7.985c-0.997-0.198-1.977-0.375-2.937-0.535l0.164-0.986
		c0.97,0.162,1.959,0.34,2.968,0.541L186.789,7.985z M166.164,7.441l-0.197-0.98c1.006-0.203,2.009-0.376,2.982-0.517l0.143,0.99
		C168.137,7.072,167.151,7.242,166.164,7.441z M180.898,6.996c-0.605-0.086-1.201-0.167-1.788-0.244
		c-0.383-0.05-0.771-0.093-1.162-0.129l0.09-0.996c0.405,0.037,0.807,0.082,1.203,0.134c0.589,0.077,1.188,0.159,1.798,0.245
		L180.898,6.996z M120.633,6.916c-0.915-0.422-1.833-0.81-2.732-1.151l0.355-0.935c0.919,0.35,1.86,0.746,2.795,1.177L120.633,6.916
		z M82.878,6.821l-0.324-0.946c0.944-0.323,1.915-0.628,2.887-0.906l0.275,0.961C84.761,6.203,83.806,6.503,82.878,6.821z
		 M172.039,6.607l-0.076-0.997c1.024-0.079,2.04-0.119,3.02-0.119l0.015,1h-0.015C174.028,6.491,173.038,6.53,172.039,6.607z
		 M88.595,5.18l-0.229-0.974c0.974-0.229,1.97-0.437,2.96-0.62l0.182,0.983C90.533,4.75,89.553,4.955,88.595,5.18z M115.096,4.828
		c-0.968-0.279-1.933-0.507-2.87-0.68l0.182-0.983c0.968,0.179,1.966,0.415,2.964,0.703L115.096,4.828z M94.446,4.099l-0.135-0.991
		c0.997-0.136,2.008-0.25,3.004-0.339l0.089,0.996C96.424,3.852,95.429,3.964,94.446,4.099z M109.299,3.767
		c-0.995-0.089-1.985-0.155-2.971-0.199l0.045-0.999c0.996,0.044,2.011,0.113,3.015,0.202L109.299,3.767z M100.375,3.565
		l-0.044-0.999c0.988-0.044,1.983-0.066,2.983-0.066l0.038,1h-0.038C102.328,3.5,101.348,3.522,100.375,3.565z"/>
	<g>
		<path style="fill-rule:evenodd;clip-rule:evenodd;fill:#E8ECFA;" d="M45.865,90.241c0.138-0.711,0.204-1.437,0.098-2.179
			c-0.586-4.103-4.911-6.892-9.661-6.235c-2.643,0.366-4.827,1.735-6.173,3.572c-2.278-1.358-5.148-2.006-8.161-1.589
			c-3.007,0.416-5.574,1.811-7.385,3.724c-6.824,1.82-11.453,7.664-10.563,13.9c0.976,6.833,8.183,11.487,16.102,10.392
			c2.443-0.338,4.625-1.23,6.504-2.439c2.966,2.076,6.896,3.109,11.05,2.535c7.915-1.095,13.543-7.524,12.567-14.357
			C49.821,94.6,48.182,92.091,45.865,90.241z"/>
		<path style="fill-rule:evenodd;clip-rule:evenodd;fill:#E8ECFA;" d="M253.127,33.225c0.206-0.711,0.351-1.449,0.351-2.228
			c0-4.305-3.37-7.789-7.529-7.789c-2.314,0-4.357,1.098-5.737,2.796c-1.789-1.721-4.174-2.796-6.811-2.796
			c-2.633,0-5.007,1.07-6.796,2.781c-6.081,0.901-10.771,6.255-10.771,12.798c0,7.169,5.617,12.982,12.548,12.982
			c2.138,0,4.121-0.608,5.883-1.584c2.291,2.557,5.539,4.18,9.175,4.18c6.929,0,12.548-5.813,12.548-12.982
			C255.988,38.273,254.889,35.458,253.127,33.225z"/>
		<path style="fill-rule:evenodd;clip-rule:evenodd;fill:#E8ECFA;" d="M244.706,127.736c0-2.222-1.763-4.02-3.938-4.02
			c-1.21,0-2.279,0.567-3,1.443c-0.936-0.888-2.183-1.443-3.562-1.443c-1.377,0-2.618,0.552-3.554,1.435
			c-3.18,0.465-5.633,3.228-5.633,6.605c0,3.7,2.937,6.701,6.563,6.701c1.118,0,2.155-0.314,3.077-0.817
			c1.198,1.32,2.897,2.158,4.799,2.158c3.624,0,6.563-3,6.563-6.701c0-1.605-0.575-3.058-1.496-4.211
			C244.63,128.519,244.706,128.138,244.706,127.736z"/>
	</g>
	<g id="Envelope" transform="translate(81.039660, 38.284264)">
		<g id="Group-3" transform="translate(0.273081, 0.000000)">
			<defs>
				<filter id="Adobe_OpacityMaskFilter" filterUnits="userSpaceOnUse" x="0" y="0" width="108.002" height="72.497">
					<feColorMatrix  type="matrix" values="1 0 0 0 0  0 1 0 0 0  0 0 1 0 0  0 0 0 1 0"/>
				</filter>
			</defs>
			<mask maskUnits="userSpaceOnUse" x="0" y="0" width="108.002" height="72.497" id="mask-8_1_">
				<g style="filter:url(#Adobe_OpacityMaskFilter);">
					<polygon id="path-7_1_" style="fill-rule:evenodd;clip-rule:evenodd;fill:#FFFFFF;" points="0,0 108.002,0 108.002,72.497
						0,72.497 					"/>
				</g>
			</mask>
			<path style="mask:url(#mask-8_1_);fill-rule:evenodd;clip-rule:evenodd;fill:#1D3DAE;" d="M101.867,72.497H6.134
				C2.747,72.497,0,69.739,0,66.337V6.161C0,2.758,2.747,0,6.134,0h95.733c3.388,0,6.134,2.758,6.134,6.161v60.176
				C108.002,69.739,105.255,72.497,101.867,72.497"/>
		</g>
		<g id="Group-6" transform="translate(0.273081, 21.106599)">
			<g id="Clip-5">
			</g>
			<defs>
				<filter id="Adobe_OpacityMaskFilter_1_" filterUnits="userSpaceOnUse" x="0" y="0.079" width="108.002" height="51.393">
					<feColorMatrix  type="matrix" values="1 0 0 0 0  0 1 0 0 0  0 0 1 0 0  0 0 0 1 0"/>
				</filter>
			</defs>
			<mask maskUnits="userSpaceOnUse" x="0" y="0.079" width="108.002" height="51.393" id="mask-10_1_">
				<g style="filter:url(#Adobe_OpacityMaskFilter_1_);">
					<polygon id="path-9_1_" style="fill-rule:evenodd;clip-rule:evenodd;fill:#FFFFFF;" points="0,0.079 108.002,0.079
						108.002,51.472 0,51.472 					"/>
				</g>
			</mask>
			<path id="Fill-4" style="mask:url(#mask-10_1_);fill-rule:evenodd;clip-rule:evenodd;fill:#2649CA;" d="M2.309,40.363
				C18.244,27.403,34.18,14.442,50.116,1.482c2.271-1.847,5.52-1.873,7.82-0.062l47.68,37.544c1.506,1.186,2.386,2.998,2.386,4.915
				v1.338c0,3.455-2.802,6.256-6.257,6.256H6.257C2.802,51.472,0,48.671,0,45.216C0,43.334,0.848,41.551,2.309,40.363z"/>
		</g>
		<g id="Group-9" transform="translate(0.273081, 0.000000)">
			<g id="Clip-8">
			</g>
			<defs>
				<filter id="Adobe_OpacityMaskFilter_2_" filterUnits="userSpaceOnUse" x="0" y="0" width="108.002" height="50.13">
					<feColorMatrix  type="matrix" values="1 0 0 0 0  0 1 0 0 0  0 0 1 0 0  0 0 0 1 0"/>
				</filter>
			</defs>
			<mask maskUnits="userSpaceOnUse" x="0" y="0" width="108.002" height="50.13" id="mask-12_1_">
				<g style="filter:url(#Adobe_OpacityMaskFilter_2_);">
					<polygon id="path-11_1_" style="fill-rule:evenodd;clip-rule:evenodd;fill:#FFFFFF;" points="0,0 108.001,0 108.001,50.13
						0,50.13 					"/>
				</g>
			</mask>
			<path id="Fill-7" style="mask:url(#mask-12_1_);fill-rule:evenodd;clip-rule:evenodd;fill:#3360FF;" d="M0.658,10.975
				C16.487,23.363,32.316,35.752,48.145,48.14c3.434,2.687,8.249,2.65,11.641-0.091C75.645,35.232,91.505,22.416,107.364,9.6
				c0.403-0.326,0.637-0.818,0.637-1.338V6.375c0-3.521-2.832-6.375-6.326-6.375H6.326C2.832,0,0,2.854,0,6.375v3.246
				C0,10.15,0.243,10.65,0.658,10.975"/>
		</g>
	</g>
	<g id="done" transform="translate(167.371707, 82.507614)">
		<path id="Path" style="fill-rule:evenodd;clip-rule:evenodd;fill:#71D0BA;" d="M0.273,19.599c0,10.823,8.761,19.599,19.575,19.599
			c10.806,0,19.575-8.776,19.575-19.599C39.424,8.772,30.654,0,19.848,0C9.034,0,0.273,8.772,0.273,19.599z"/>
		<path style="fill-rule:evenodd;clip-rule:evenodd;fill:#FFFFFF;" d="M18.404,25.927c-0.302,0.273-0.792,0.273-1.094,0l-2.439-2.25
			l-4.334-3.99c-0.302-0.273-0.302-0.725,0-1.003l1.895-1.744c0.302-0.278,0.792-0.278,1.094,0l3.785,3.484
			c0.302,0.278,0.792,0.278,1.094,0l7.767-7.151c0.302-0.278,0.792-0.278,1.094,0l1.895,1.744c0.302,0.278,0.302,0.729,0,1.003
			L18.404,25.927z"/>
	</g>
</g>
</svg>
