<?xml version="1.0" encoding="utf-8"?>
<!-- Generator: Adobe Illustrator 23.1.1, SVG Export Plug-In . SVG Version: 6.00 Build 0)  -->
<svg version="1.1" id="Layer_1" xmlns="http://www.w3.org/2000/svg" xmlns:xlink="http://www.w3.org/1999/xlink" x="0px" y="0px"
	 width="24px" height="16px" viewBox="0 0 24 16" style="enable-background:new 0 0 24 16;" xml:space="preserve">
<path fill="#ff2e55" id="Shape" d="M12,5c-1.657,0-3,1.343-3,3s1.343,3,3,3s3-1.343,3-3S13.657,5,12,5L12,5z M12,13c-2.761,0-5-2.239-5-5
	s2.239-5,5-5s5,2.239,5,5S14.761,13,12,13L12,13z M12,0.5C7,0.5,2.73,3.61,1,8c1.73,4.39,6,7.5,11,7.5s9.27-3.11,11-7.5
	C21.27,3.61,17,0.5,12,0.5z"/>
</svg>
